<svg width="395" height="151" viewBox="0 0 395 151" fill="none" xmlns="http://www.w3.org/2000/svg">
<path d="M16.256 35.688C16.256 38.952 16.64 41.896 17.408 44.52C18.24 47.144 19.392 49.416 20.864 51.336C22.4 53.192 24.256 54.632 26.432 55.656C28.608 56.68 31.104 57.192 33.92 57.192C36.672 57.192 39.136 56.68 41.312 55.656C43.552 54.632 45.408 53.192 46.88 51.336C48.416 49.416 49.568 47.144 50.336 44.52C51.168 41.896 51.584 38.952 51.584 35.688C51.584 32.424 51.168 29.48 50.336 26.856C49.568 24.168 48.416 21.896 46.88 20.04C45.408 18.12 43.552 16.648 41.312 15.624C39.136 14.6 36.672 14.088 33.92 14.088C31.104 14.088 28.608 14.632 26.432 15.72C24.256 16.744 22.4 18.216 20.864 20.136C19.392 21.992 18.24 24.264 17.408 26.952C16.64 29.576 16.256 32.488 16.256 35.688ZM67.04 35.688C67.04 41.384 66.176 46.408 64.448 50.76C62.784 55.048 60.48 58.664 57.536 61.608C54.592 64.488 51.072 66.664 46.976 68.136C42.944 69.608 38.592 70.344 33.92 70.344C29.376 70.344 25.088 69.608 21.056 68.136C17.024 66.664 13.504 64.488 10.496 61.608C7.488 58.664 5.12 55.048 3.392 50.76C1.664 46.408 0.8 41.384 0.8 35.688C0.8 29.992 1.696 25 3.488 20.712C5.28 16.36 7.68 12.712 10.688 9.768C13.76 6.824 17.28 4.616 21.248 3.144C25.28 1.672 29.504 0.935995 33.92 0.935995C38.464 0.935995 42.752 1.672 46.784 3.144C50.816 4.616 54.336 6.824 57.344 9.768C60.352 12.712 62.72 16.36 64.448 20.712C66.176 25 67.04 29.992 67.04 35.688ZM78.0373 115.688C78.0373 118.952 78.4213 121.896 79.1893 124.52C80.0213 127.144 81.1733 129.416 82.6453 131.336C84.1813 133.192 86.0373 134.632 88.2133 135.656C90.3893 136.68 92.8853 137.192 95.7013 137.192C98.4533 137.192 100.917 136.68 103.093 135.656C105.333 134.632 107.189 133.192 108.661 131.336C110.197 129.416 111.349 127.144 112.117 124.52C112.949 121.896 113.365 118.952 113.365 115.688C113.365 112.424 112.949 109.48 112.117 106.856C111.349 104.168 110.197 101.896 108.661 100.04C107.189 98.12 105.333 96.648 103.093 95.624C100.917 94.6 98.4533 94.088 95.7013 94.088C92.8853 94.088 90.3893 94.632 88.2133 95.72C86.0373 96.744 84.1813 98.216 82.6453 100.136C81.1733 101.992 80.0213 104.264 79.1893 106.952C78.4213 109.576 78.0373 112.488 78.0373 115.688ZM128.821 115.688C128.821 121.384 127.957 126.408 126.229 130.76C124.565 135.048 122.261 138.664 119.317 141.608C116.373 144.488 112.853 146.664 108.757 148.136C104.725 149.608 100.373 150.344 95.7013 150.344C91.1573 150.344 86.8693 149.608 82.8373 148.136C78.8053 146.664 75.2853 144.488 72.2773 141.608C69.2693 138.664 66.9013 135.048 65.1733 130.76C63.4453 126.408 62.5813 121.384 62.5813 115.688C62.5813 109.992 63.4773 105 65.2693 100.712C67.0613 96.36 69.4613 92.712 72.4693 89.768C75.5413 86.824 79.0613 84.616 83.0293 83.144C87.0613 81.672 91.2853 80.936 95.7013 80.936C100.245 80.936 104.533 81.672 108.565 83.144C112.597 84.616 116.117 86.824 119.125 89.768C122.133 92.712 124.501 96.36 126.229 100.712C127.957 105 128.821 109.992 128.821 115.688Z" fill="#F535AA"/>
<path d="M99.4918 1.704C109.412 1.704 117.028 3.464 122.34 6.984C127.652 10.44 130.308 16.136 130.308 24.072C130.308 32.072 127.62 37.864 122.244 41.448C116.868 44.968 109.188 46.728 99.2038 46.728H94.4998V69H79.5238V3.432C82.7878 2.792 86.2438 2.344 89.8918 2.088C93.5398 1.832 96.7398 1.704 99.4918 1.704ZM100.452 14.472C99.3638 14.472 98.2758 14.504 97.1877 14.568C96.1638 14.632 95.2678 14.696 94.4998 14.76V33.96H99.2038C104.388 33.96 108.292 33.256 110.916 31.848C113.54 30.44 114.852 27.816 114.852 23.976C114.852 22.12 114.5 20.584 113.796 19.368C113.156 18.152 112.196 17.192 110.916 16.488C109.7 15.72 108.196 15.208 106.404 14.952C104.612 14.632 102.628 14.472 100.452 14.472ZM141.305 69V2.472H186.233V15.048H156.281V28.104H182.873V40.392H156.281V56.424H188.441V69H141.305ZM219.012 1.704C228.996 1.704 236.644 3.496 241.956 7.08C247.268 10.6 249.924 16.104 249.924 23.592C249.924 28.264 248.836 32.072 246.66 35.016C244.548 37.896 241.476 40.168 237.444 41.832C238.788 43.496 240.196 45.416 241.668 47.592C243.14 49.704 244.58 51.944 245.988 54.312C247.46 56.616 248.868 59.048 250.212 61.608C251.556 64.104 252.804 66.568 253.956 69H237.156C235.94 66.824 234.692 64.616 233.412 62.376C232.196 60.136 230.916 57.96 229.572 55.848C228.292 53.736 227.012 51.752 225.732 49.896C224.452 47.976 223.172 46.248 221.892 44.712H214.5V69H199.524V3.432C202.788 2.792 206.148 2.344 209.604 2.088C213.124 1.832 216.26 1.704 219.012 1.704ZM219.876 14.472C218.788 14.472 217.796 14.504 216.9 14.568C216.068 14.632 215.268 14.696 214.5 14.76V32.808H218.724C224.356 32.808 228.388 32.104 230.82 30.696C233.252 29.288 234.468 26.888 234.468 23.496C234.468 20.232 233.22 17.928 230.724 16.584C228.292 15.176 224.676 14.472 219.876 14.472ZM311.099 69C310.395 66.696 309.595 64.328 308.699 61.896C307.867 59.464 307.035 57.032 306.203 54.6H280.283C279.451 57.032 278.587 59.464 277.691 61.896C276.859 64.328 276.091 66.696 275.387 69H259.835C262.331 61.832 264.699 55.208 266.939 49.128C269.179 43.048 271.355 37.32 273.467 31.944C275.643 26.568 277.755 21.48 279.803 16.68C281.915 11.816 284.091 7.08 286.331 2.472H300.635C302.811 7.08 304.955 11.816 307.067 16.68C309.179 21.48 311.291 26.568 313.403 31.944C315.579 37.32 317.787 43.048 320.027 49.128C322.267 55.208 324.635 61.832 327.131 69H311.099ZM293.147 17.544C292.827 18.504 292.347 19.816 291.707 21.48C291.067 23.144 290.331 25.064 289.499 27.24C288.667 29.416 287.739 31.816 286.715 34.44C285.755 37.064 284.763 39.816 283.739 42.696H302.651C301.627 39.816 300.635 37.064 299.675 34.44C298.715 31.816 297.787 29.416 296.891 27.24C296.059 25.064 295.323 23.144 294.683 21.48C294.043 19.816 293.531 18.504 293.147 17.544ZM350.719 56.808C351.423 56.872 352.223 56.936 353.119 57C354.079 57 355.199 57 356.479 57C363.967 57 369.503 55.112 373.087 51.336C376.735 47.56 378.559 42.344 378.559 35.688C378.559 28.712 376.831 23.432 373.375 19.848C369.919 16.264 364.447 14.472 356.959 14.472C355.935 14.472 354.879 14.504 353.791 14.568C352.703 14.568 351.679 14.632 350.719 14.76V56.808ZM394.015 35.688C394.015 41.448 393.119 46.472 391.327 50.76C389.535 55.048 386.975 58.6 383.647 61.416C380.383 64.232 376.383 66.344 371.647 67.752C366.911 69.16 361.599 69.864 355.711 69.864C353.023 69.864 349.887 69.736 346.303 69.48C342.719 69.288 339.199 68.84 335.743 68.136V3.336C339.199 2.696 342.783 2.28 346.495 2.088C350.271 1.832 353.503 1.704 356.191 1.704C361.887 1.704 367.039 2.344 371.647 3.62399C376.319 4.904 380.319 6.92 383.647 9.672C386.975 12.424 389.535 15.944 391.327 20.232C393.119 24.52 394.015 29.672 394.015 35.688ZM23.648 81.704C33.568 81.704 41.184 83.464 46.496 86.984C51.808 90.44 54.464 96.136 54.464 104.072C54.464 112.072 51.776 117.864 46.4 121.448C41.024 124.968 33.344 126.728 23.36 126.728H18.656V149H3.68V83.432C6.944 82.792 10.4 82.344 14.048 82.088C17.696 81.832 20.896 81.704 23.648 81.704ZM24.608 94.472C23.52 94.472 22.432 94.504 21.344 94.568C20.32 94.632 19.424 94.696 18.656 94.76V113.96H23.36C28.544 113.96 32.448 113.256 35.072 111.848C37.696 110.44 39.008 107.816 39.008 103.976C39.008 102.12 38.656 100.584 37.952 99.368C37.312 98.152 36.352 97.192 35.072 96.488C33.856 95.72 32.352 95.208 30.56 94.952C28.768 94.632 26.784 94.472 24.608 94.472ZM161.273 81.704C171.193 81.704 178.809 83.464 184.121 86.984C189.433 90.44 192.089 96.136 192.089 104.072C192.089 112.072 189.401 117.864 184.025 121.448C178.649 124.968 170.969 126.728 160.985 126.728H156.281V149H141.305V83.432C144.569 82.792 148.025 82.344 151.673 82.088C155.321 81.832 158.521 81.704 161.273 81.704ZM162.233 94.472C161.145 94.472 160.057 94.504 158.969 94.568C157.945 94.632 157.049 94.696 156.281 94.76V113.96H160.985C166.169 113.96 170.073 113.256 172.697 111.848C175.321 110.44 176.633 107.816 176.633 103.976C176.633 102.12 176.281 100.584 175.577 99.368C174.937 98.152 173.977 97.192 172.697 96.488C171.481 95.72 169.977 95.208 168.185 94.952C166.393 94.632 164.409 94.472 162.233 94.472ZM205.966 114.344H253.966V126.248H205.966V114.344ZM298.222 150.344C293.55 150.344 289.518 149.704 286.126 148.424C282.734 147.08 279.918 145.256 277.678 142.952C275.502 140.584 273.87 137.8 272.782 134.6C271.758 131.336 271.246 127.752 271.246 123.848V82.472H286.222V122.6C286.222 125.288 286.51 127.592 287.086 129.512C287.726 131.368 288.558 132.904 289.582 134.12C290.67 135.272 291.95 136.104 293.422 136.616C294.958 137.128 296.622 137.384 298.414 137.384C302.062 137.384 305.006 136.264 307.246 134.024C309.55 131.784 310.702 127.976 310.702 122.6V82.472H325.678V123.848C325.678 127.752 325.134 131.336 324.046 134.6C322.958 137.864 321.294 140.68 319.054 143.048C316.814 145.352 313.966 147.144 310.51 148.424C307.054 149.704 302.958 150.344 298.222 150.344ZM360.049 81.704C369.969 81.704 377.585 83.464 382.897 86.984C388.209 90.44 390.865 96.136 390.865 104.072C390.865 112.072 388.177 117.864 382.801 121.448C377.425 124.968 369.745 126.728 359.761 126.728H355.057V149H340.081V83.432C343.345 82.792 346.801 82.344 350.449 82.088C354.097 81.832 357.297 81.704 360.049 81.704ZM361.009 94.472C359.921 94.472 358.833 94.504 357.745 94.568C356.721 94.632 355.825 94.696 355.057 94.76V113.96H359.761C364.945 113.96 368.849 113.256 371.473 111.848C374.097 110.44 375.409 107.816 375.409 103.976C375.409 102.12 375.057 100.584 374.353 99.368C373.713 98.152 372.753 97.192 371.473 96.488C370.257 95.72 368.753 95.208 366.961 94.952C365.169 94.632 363.185 94.472 361.009 94.472Z" fill="black"/>
</svg>
