<svg width="574" height="138" viewBox="0 0 574 138" fill="none" xmlns="http://www.w3.org/2000/svg">
<path d="M16.7969 0.03125L48.3633 37.9219L79.9219 0.03125H96.4961V96.0977H77.9375V28.6328H77.3828L49.5977 62.4688H46.9805L19.2031 28.6328H18.6523V96.0977H0.0859375V0.03125H16.7969Z" fill="#8B2019"/>
<path d="M142.16 58.6211H173.176L156.949 20.5898L142.16 58.6211ZM166.363 0.03125L208.797 96.0977H189.195L179.223 72.7148H136.523L127.234 96.0977H107.777L147.391 0.03125H166.363Z" fill="#8B2019"/>
<path d="M288.5 0.03125V14.5391H254.391V96.0977H235.824V14.5391H201.719V0.03125H288.5Z" fill="#8B2019"/>
<path d="M332.992 41.0156C337.852 41.0156 341.672 39.8008 344.445 37.3711C347.219 34.9414 348.602 31.6094 348.602 27.3945C348.602 23 347.23 19.7109 344.473 17.5312C341.73 15.3555 337.809 14.2578 332.715 14.2578H321.164V41.0156H332.992ZM337.184 0.03125C346.215 0.03125 353.582 2.52344 359.258 7.51953C364.949 12.5234 367.789 19.0312 367.789 27.0547C367.789 32.5156 366.379 37.2695 363.559 41.3281C360.746 45.3828 356.562 48.582 351.012 50.9141C354.082 52.5664 356.809 54.8125 359.191 57.6562C361.578 60.5 364.535 65.2891 368.066 72.0273C373.93 83.6797 378.289 91.6992 381.129 96.0938H360.434C359.016 93.9883 357.082 90.6172 354.656 85.9883C349.336 75.7695 345.437 68.8789 342.961 65.3281C340.484 61.7773 338.102 59.2539 335.812 57.7656C333.52 56.2695 330.887 55.5195 327.906 55.5195H321.164V96.0938H302.602V0.03125H337.184Z" fill="#8B2019"/>
<path d="M393.719 96.0938H412.281V0.0273438H393.719V96.0938Z" fill="#8B2019"/>
<path d="M457.609 76.1016L456.926 63.7266H466.137L465.406 76.1016L477.008 71.6172L479.848 80.3711L467.832 83.4805L475.672 93.1133L468.25 98.5156L461.512 88.0664L454.816 98.5156L447.344 93.1133L455.23 83.5312L443.215 80.3711L446.059 71.6172L457.609 76.1016Z" fill="#131413"/>
<path d="M457.609 12.9766L456.926 0.597656H466.137L465.406 12.9766L477.008 8.48828L479.848 17.2461L467.832 20.3672L475.672 29.9922L468.25 35.3945L461.512 24.9453L454.816 35.3945L447.344 29.9922L455.23 20.4102L443.215 17.2461L446.059 8.48828L457.609 12.9766Z" fill="#131413"/>
<path d="M516.32 12.9766L515.633 0.597656H524.852L524.117 12.9766L535.719 8.48828L538.559 17.2461L526.543 20.3672L534.387 29.9922L526.965 35.3945L520.223 24.9453L513.527 35.3945L506.051 29.9922L513.938 20.4102L501.934 17.2461L504.77 8.48828L516.32 12.9766Z" fill="#131413"/>
<path d="M551.395 114.641L550.883 102.25L560.098 102.379L559.195 114.746L570.855 110.418L573.57 119.211L561.523 122.16L569.219 131.895L561.723 137.207L555.129 126.66L548.293 137.027L540.891 131.504L548.914 122.031L536.941 118.707L539.902 109.988L551.395 114.641Z" fill="#131413"/>
<path d="M544.242 66.8711L543.73 57.5859H550.641L550.09 66.8711L558.789 63.5L560.926 70.0625L551.91 72.4062L557.785 79.6211L552.219 83.6836L547.164 75.8398L542.148 83.6836L536.543 79.6211L542.457 72.4414L533.445 70.0625L535.578 63.5L544.242 66.8711Z" fill="#131413"/>
<path d="M473.895 68.7344L507.266 35.5312" stroke="#131413" stroke-width="7.82328" stroke-miterlimit="10"/>
<path d="M475.91 35.543L546.949 106.59" stroke="#131413" stroke-width="7.82328" stroke-miterlimit="10"/>
</svg>
